# xmcd
#
# Track frame offsets: 
#        225
#        19912
#        36717
#        62100
#        77530
#        89480
#        105142
#        125415
#        142495
#        158920
#        174092
#        189217
#        203785
#        227867
#        242055
#        257230
#        273290
#        288490
#
# Disc length: 4032 seconds
#
# Revision: 0
# Processed by: cddbd v1.4PL0 Copyright (c) Steve Scherf et al.
# Submitted via: ExactAudioCopy v0.90b4
#
DISCID=010fbd12
DTITLE=Иван Кучин - Лучшие Песни
DYEAR=1900
DGENRE=Shanson
TTITLE0=В таверне
TTITLE1=Пройдут года
TTITLE2=Хрустальная ваза
TTITLE3=Черное прошлое
TTITLE4=Мостик
TTITLE5=Судьба-злодейка
TTITLE6=Прощай, прощай
TTITLE7=Судьба воровская
TTITLE8=Таволга
TTITLE9=Рецедивист
TTITLE10=Запретная зона
TTITLE11=Чикаго
TTITLE12=Человек в телогрейке
TTITLE13=Заочница
TTITLE14=Колечко
TTITLE15=На перроне вокзала
TTITLE16=Обыкновенная
TTITLE17=Вор и судья
EXTD=
EXTT0=
EXTT1=
EXTT2=
EXTT3=
EXTT4=
EXTT5=
EXTT6=
EXTT7=
EXTT8=
EXTT9=
EXTT10=
EXTT11=
EXTT12=
EXTT13=
EXTT14=
EXTT15=
EXTT16=
EXTT17=
PLAYORDER=
